# Blender 4.3.2
# www.blender.org
o skeleton
v 9901.954102 3.066778 2743.605225
v 9901.954102 2553.119629 2743.605225
v 6524.390625 3.066778 2743.605225
v 6524.390625 2553.119629 2743.605225
v 9901.947266 3.066778 1492.746826
v 9901.947266 2553.119629 1492.746826
v 6524.384277 3.066778 1492.746826
v 6524.384277 2553.119629 1492.746826
vn -0.0000 -0.0000 1.0000
vn -1.0000 -0.0000 -0.0000
vn -0.0000 -0.0000 -1.0000
vn 1.0000 -0.0000 -0.0000
vn -0.0000 -1.0000 -0.0000
vn -0.0000 1.0000 -0.0000
s 0
f 1//1 2//1 4//1 3//1
f 3//2 4//2 8//2 7//2
f 7//3 8//3 6//3 5//3
f 5//4 6//4 2//4 1//4
f 3//5 7//5 5//5 1//5
f 8//6 4//6 2//6 6//6
o skull
v 13501.208008 3.066778 336.175201
v 13501.208008 3220.035156 336.175201
v 12020.736328 3.066778 336.175201
v 12020.736328 3220.035156 336.175201
v 13501.205078 3.066778 -1219.587036
v 13501.205078 3220.035156 -1219.587036
v 12020.733398 3.066778 -1219.587036
v 12020.733398 3220.035156 -1219.587036
vn -0.0000 -0.0000 1.0000
vn -1.0000 -0.0000 -0.0000
vn -0.0000 -0.0000 -1.0000
vn 1.0000 -0.0000 -0.0000
vn -0.0000 -1.0000 -0.0000
vn -0.0000 1.0000 -0.0000
s 0
f 9//7 10//7 12//7 11//7
f 11//8 12//8 16//8 15//8
f 15//9 16//9 14//9 13//9
f 13//10 14//10 10//10 9//10
f 11//11 15//11 13//11 9//11
f 16//12 12//12 10//12 14//12
o skeleton_buddha
v 9018.282227 -274.211884 -1694.910767
v 9018.282227 3893.099854 -1694.910767
v 7380.442383 -274.211884 -1694.910767
v 7380.442383 3893.099854 -1694.910767
v 9018.279297 -274.211884 -3416.043701
v 9018.279297 3893.099854 -3416.043701
v 7380.439941 -274.211884 -3416.043701
v 7380.439941 3893.099854 -3416.043701
vn -0.0000 -0.0000 1.0000
vn -1.0000 -0.0000 -0.0000
vn -0.0000 -0.0000 -1.0000
vn 1.0000 -0.0000 -0.0000
vn -0.0000 -1.0000 -0.0000
vn -0.0000 1.0000 -0.0000
s 0
f 17//13 18//13 20//13 19//13
f 19//14 20//14 24//14 23//14
f 23//15 24//15 22//15 21//15
f 21//16 22//16 18//16 17//16
f 19//17 23//17 21//17 17//17
f 24//18 20//18 18//18 22//18
o buddha
v 4420.598145 -274.211884 -6525.248535
v 4420.598145 3853.605957 -6525.248535
v 2782.758789 -274.211884 -6525.248535
v 2782.758789 3853.605957 -6525.248535
v 4420.595215 -274.211884 -8246.381836
v 4420.595215 3853.605957 -8246.381836
v 2782.755615 -274.211884 -8246.381836
v 2782.755615 3853.605957 -8246.381836
vn -0.0000 -0.0000 1.0000
vn -1.0000 -0.0000 -0.0000
vn -0.0000 -0.0000 -1.0000
vn 1.0000 -0.0000 -0.0000
vn -0.0000 -1.0000 -0.0000
vn -0.0000 1.0000 -0.0000
s 0
f 25//19 26//19 28//19 27//19
f 27//20 28//20 32//20 31//20
f 31//21 32//21 30//21 29//21
f 29//22 30//22 26//22 25//22
f 27//23 31//23 29//23 25//23
f 32//24 28//24 26//24 30//24
o lion
v -129.814270 -250.331635 -8838.661133
v -129.814270 4060.526855 -8838.661133
v -3362.594727 -250.331635 -8838.661133
v -3362.594727 4060.526855 -8838.661133
v -129.819992 -250.331635 -10754.242188
v -129.819992 4060.526855 -10754.242188
v -3362.600586 -250.331635 -10754.242188
v -3362.600586 4060.526855 -10754.242188
vn -0.0000 -0.0000 1.0000
vn -1.0000 -0.0000 -0.0000
vn -0.0000 -0.0000 -1.0000
vn 1.0000 -0.0000 -0.0000
vn -0.0000 -1.0000 -0.0000
vn -0.0000 1.0000 -0.0000
s 0
f 33//25 34//25 36//25 35//25
f 35//26 36//26 40//26 39//26
f 39//27 40//27 38//27 37//27
f 37//28 38//28 34//28 33//28
f 35//29 39//29 37//29 33//29
f 40//30 36//30 34//30 38//30
o david
v -6775.693848 -250.331635 -6873.748535
v -6775.693848 4020.519287 -6873.748535
v -8247.772461 -250.331635 -6873.748535
v -8247.772461 4020.519287 -6873.748535
v -6775.696777 -250.331635 -8400.103516
v -6775.696777 4020.519287 -8400.103516
v -8247.775391 -250.331635 -8400.103516
v -8247.775391 4020.519287 -8400.103516
vn -0.0000 -0.0000 1.0000
vn -1.0000 -0.0000 -0.0000
vn -0.0000 -0.0000 -1.0000
vn 1.0000 -0.0000 -0.0000
vn -0.0000 -1.0000 -0.0000
vn -0.0000 1.0000 -0.0000
s 0
f 41//31 42//31 44//31 43//31
f 43//32 44//32 48//32 47//32
f 47//33 48//33 46//33 45//33
f 45//34 46//34 42//34 41//34
f 43//35 47//35 45//35 41//35
f 48//36 44//36 42//36 46//36
o horse
v -6774.023926 1703.033081 3555.323975
v -6774.023926 3862.190674 3555.323975
v -6774.023926 1703.033081 3158.327881
v -6774.023926 3862.190674 3158.327881
v -4718.812988 1703.033081 3555.323975
v -4718.812988 3862.190674 3555.323975
v -4718.812988 1703.033081 3158.327881
v -4718.812988 3862.190674 3158.327881
vn -1.0000 -0.0000 -0.0000
vn -0.0000 -0.0000 -1.0000
vn 1.0000 -0.0000 -0.0000
vn -0.0000 -0.0000 1.0000
vn -0.0000 -1.0000 -0.0000
vn -0.0000 1.0000 -0.0000
s 0
f 49//37 50//37 52//37 51//37
f 51//38 52//38 56//38 55//38
f 55//39 56//39 54//39 53//39
f 53//40 54//40 50//40 49//40
f 51//41 55//41 53//41 49//41
f 56//42 52//42 50//42 54//42
o michaelangelo
v -8024.902344 1694.925781 8315.400391
v -8024.902344 3699.314697 8315.400391
v -8659.288086 1694.925781 8315.400391
v -8659.288086 3699.314697 8315.400391
v -8024.903320 1694.925781 4912.366699
v -8024.903320 3699.314697 4912.366699
v -8659.289062 1694.925781 4912.366699
v -8659.289062 3699.314697 4912.366699
vn -0.0000 -0.0000 1.0000
vn -1.0000 -0.0000 -0.0000
vn -0.0000 -0.0000 -1.0000
vn 1.0000 -0.0000 -0.0000
vn -0.0000 -1.0000 -0.0000
vn -0.0000 1.0000 -0.0000
s 0
f 57//43 58//43 60//43 59//43
f 59//44 60//44 64//44 63//44
f 63//45 64//45 62//45 61//45
f 61//46 62//46 58//46 57//46
f 59//47 63//47 61//47 57//47
f 64//48 60//48 58//48 62//48
o starrynight
v -7025.333496 898.068909 10618.648438
v -7025.333496 4952.126465 10618.648438
v -7025.333496 898.068909 10221.653320
v -7025.333496 4952.126465 10221.653320
v -1001.334900 898.068909 10618.648438
v -1001.334900 4952.126465 10618.648438
v -1001.334900 898.068909 10221.653320
v -1001.334900 4952.126465 10221.653320
vn -1.0000 -0.0000 -0.0000
vn -0.0000 -0.0000 -1.0000
vn 1.0000 -0.0000 -0.0000
vn -0.0000 -0.0000 1.0000
vn -0.0000 -1.0000 -0.0000
vn -0.0000 1.0000 -0.0000
s 0
f 65//49 66//49 68//49 67//49
f 67//50 68//50 72//50 71//50
f 71//51 72//51 70//51 69//51
f 69//52 70//52 66//52 65//52
f 67//53 71//53 69//53 65//53
f 72//54 68//54 66//54 70//54
o mondrian
v 490.988251 1793.958496 10666.724609
v 490.988251 3871.005127 10666.724609
v 490.988251 1793.958496 10269.727539
v 490.988251 3871.005127 10269.727539
v 2571.882812 1793.958496 10666.724609
v 2571.882812 3871.005127 10666.724609
v 2571.882812 1793.958496 10269.727539
v 2571.882812 3871.005127 10269.727539
vn -1.0000 -0.0000 -0.0000
vn -0.0000 -0.0000 -1.0000
vn 1.0000 -0.0000 -0.0000
vn -0.0000 -0.0000 1.0000
vn -0.0000 -1.0000 -0.0000
vn -0.0000 1.0000 -0.0000
s 0
f 73//55 74//55 76//55 75//55
f 75//56 76//56 80//56 79//56
f 79//57 80//57 78//57 77//57
f 77//58 78//58 74//58 73//58
f 75//59 79//59 77//59 73//59
f 80//60 76//60 74//60 78//60
o monalisa
v 4579.407227 973.515991 7995.025879
v 4579.407227 4727.026367 7995.025879
v 4152.603027 973.515991 7995.025879
v 4152.603027 4727.026367 7995.025879
v 4579.406250 973.515991 5905.804199
v 4579.406250 4727.026367 5905.804199
v 4152.602051 973.515991 5905.804199
v 4152.602051 4727.026367 5905.804199
vn -0.0000 -0.0000 1.0000
vn -1.0000 -0.0000 -0.0000
vn -0.0000 -0.0000 -1.0000
vn 1.0000 -0.0000 -0.0000
vn -0.0000 -1.0000 -0.0000
vn -0.0000 1.0000 -0.0000
s 0
f 81//61 82//61 84//61 83//61
f 83//62 84//62 88//62 87//62
f 87//63 88//63 86//63 85//63
f 85//64 86//64 82//64 81//64
f 83//65 87//65 85//65 81//65
f 88//66 84//66 82//66 86//66
