# Blender 4.3.2
# www.blender.org
o wall_002
v -1161.918213 -250.331604 3271.871582
v -1161.918213 5473.589355 3271.871582
v -1161.918213 -250.331604 2874.875244
v -1161.918213 5473.589355 2874.875244
v 14206.316406 -250.331604 3271.871582
v 14206.316406 5473.589355 3271.871582
v 14206.316406 -250.331604 2874.875244
v 14206.316406 5473.589355 2874.875244
vn -1.0000 -0.0000 -0.0000
vn -0.0000 -0.0000 -1.0000
vn 1.0000 -0.0000 -0.0000
vn -0.0000 -0.0000 1.0000
vn -0.0000 -1.0000 -0.0000
vn -0.0000 1.0000 -0.0000
s 0
f 1//1 2//1 4//1 3//1
f 3//2 4//2 8//2 7//2
f 7//3 8//3 6//3 5//3
f 5//4 6//4 2//4 1//4
f 3//5 7//5 5//5 1//5
f 8//6 4//6 2//6 6//6
o wall_003
v -8897.120117 -250.331604 3271.871582
v -8897.120117 5473.589355 3271.871582
v -8897.120117 -250.331604 2874.875244
v -8897.120117 5473.589355 2874.875244
v -2781.028564 -250.331604 3271.871582
v -2781.028564 5473.589355 3271.871582
v -2781.028564 -250.331604 2874.875244
v -2781.028564 5473.589355 2874.875244
vn -1.0000 -0.0000 -0.0000
vn -0.0000 -0.0000 -1.0000
vn 1.0000 -0.0000 -0.0000
vn -0.0000 -0.0000 1.0000
vn -0.0000 -1.0000 -0.0000
vn -0.0000 1.0000 -0.0000
s 0
f 9//7 10//7 12//7 11//7
f 11//8 12//8 16//8 15//8
f 15//9 16//9 14//9 13//9
f 13//10 14//10 10//10 9//10
f 11//11 15//11 13//11 9//11
f 16//12 12//12 10//12 14//12
o wall_004
v -8897.120117 -250.331604 10965.139648
v -8897.120117 5473.589355 10965.139648
v -8897.120117 -250.331604 10568.142578
v -8897.120117 5473.589355 10568.142578
v 4814.649902 -250.331604 10965.139648
v 4814.649902 5473.589355 10965.139648
v 4814.649902 -250.331604 10568.142578
v 4814.649902 5473.589355 10568.142578
vn -1.0000 -0.0000 -0.0000
vn -0.0000 -0.0000 -1.0000
vn 1.0000 -0.0000 -0.0000
vn -0.0000 -0.0000 1.0000
vn -0.0000 -1.0000 -0.0000
vn -0.0000 1.0000 -0.0000
s 0
f 17//13 18//13 20//13 19//13
f 19//14 20//14 24//14 23//14
f 23//15 24//15 22//15 21//15
f 21//16 22//16 18//16 17//16
f 19//17 23//17 21//17 17//17
f 24//18 20//18 18//18 22//18
o wall_005
v -8897.120117 -250.331604 -3933.450195
v -8897.120117 5473.589355 -3933.450195
v -8897.120117 -250.331604 -4330.446289
v -8897.120117 5473.589355 -4330.446289
v -2781.028564 -250.331604 -3933.450195
v -2781.028564 5473.589355 -3933.450195
v -2781.028564 -250.331604 -4330.446289
v -2781.028564 5473.589355 -4330.446289
vn -1.0000 -0.0000 -0.0000
vn -0.0000 -0.0000 -1.0000
vn 1.0000 -0.0000 -0.0000
vn -0.0000 -0.0000 1.0000
vn -0.0000 -1.0000 -0.0000
vn -0.0000 1.0000 -0.0000
s 0
f 25//19 26//19 28//19 27//19
f 27//20 28//20 32//20 31//20
f 31//21 32//21 30//21 29//21
f 29//22 30//22 26//22 25//22
f 27//23 31//23 29//23 25//23
f 32//24 28//24 26//24 30//24
o wall_006
v -1161.918213 -250.331604 -3933.450195
v -1161.918213 5473.589355 -3933.450195
v -1161.918213 -250.331604 -4330.446289
v -1161.918213 5473.589355 -4330.446289
v 14206.316406 -250.331604 -3933.450195
v 14206.316406 5473.589355 -3933.450195
v 14206.316406 -250.331604 -4330.446289
v 14206.316406 5473.589355 -4330.446289
vn -1.0000 -0.0000 -0.0000
vn -0.0000 -0.0000 -1.0000
vn 1.0000 -0.0000 -0.0000
vn -0.0000 -0.0000 1.0000
vn -0.0000 -1.0000 -0.0000
vn -0.0000 1.0000 -0.0000
s 0
f 33//25 34//25 36//25 35//25
f 35//26 36//26 40//26 39//26
f 39//27 40//27 38//27 37//27
f 37//28 38//28 34//28 33//28
f 35//29 39//29 37//29 33//29
f 40//30 36//30 34//30 38//30
o triton
v -1860.648560 321.770081 -93.310295
v -1860.648560 3862.838379 -93.310295
v -2215.891846 321.770081 -93.310295
v -2215.891846 3862.838379 -93.310295
v -1860.649170 321.770081 -949.097961
v -1860.649170 3862.838379 -949.097961
v -2215.892334 321.770081 -949.097961
v -2215.892334 3862.838379 -949.097961
vn -0.0000 -0.0000 1.0000
vn -1.0000 -0.0000 -0.0000
vn -0.0000 -0.0000 -1.0000
vn 1.0000 -0.0000 -0.0000
vn -0.0000 -1.0000 -0.0000
vn -0.0000 1.0000 -0.0000
s 0
f 41//31 42//31 44//31 43//31
f 43//32 44//32 48//32 47//32
f 47//33 48//33 46//33 45//33
f 45//34 46//34 42//34 41//34
f 43//35 47//35 45//35 41//35
f 48//36 44//36 42//36 46//36
o fountain_000
v -1657.005127 -564.926086 -154.115829
v -1657.005127 1015.959412 -154.115829
v -2419.534424 -564.926086 -154.115829
v -2419.534424 1015.959412 -154.115829
v -1657.006470 -564.926086 -888.292419
v -1657.006470 1015.959412 -888.292419
v -2419.535889 -564.926086 -888.292419
v -2419.535889 1015.959412 -888.292419
vn -0.0000 -0.0000 1.0000
vn -1.0000 -0.0000 -0.0000
vn -0.0000 -0.0000 -1.0000
vn 1.0000 -0.0000 -0.0000
vn -0.0000 -1.0000 -0.0000
vn -0.0000 1.0000 -0.0000
s 0
f 49//37 50//37 52//37 51//37
f 51//38 52//38 56//38 55//38
f 55//39 56//39 54//39 53//39
f 53//40 54//40 50//40 49//40
f 51//41 55//41 53//41 49//41
f 56//42 52//42 50//42 54//42
o fountain_001
v -1367.849609 -357.654755 158.110672
v -1367.849609 808.688232 158.110672
v -2708.688721 -357.654755 158.110672
v -2708.688721 808.688232 158.110672
v -1367.852051 -357.654755 -1200.518799
v -1367.852051 808.688232 -1200.518799
v -2708.691406 -357.654755 -1200.518799
v -2708.691406 808.688232 -1200.518799
vn -0.0000 -0.0000 1.0000
vn -1.0000 -0.0000 -0.0000
vn -0.0000 -0.0000 -1.0000
vn 1.0000 -0.0000 -0.0000
vn -0.0000 -1.0000 -0.0000
vn -0.0000 1.0000 -0.0000
s 0
f 57//43 58//43 60//43 59//43
f 59//44 60//44 64//44 63//44
f 63//45 64//45 62//45 61//45
f 61//46 62//46 58//46 57//46
f 59//47 63//47 61//47 57//47
f 64//48 60//48 58//48 62//48
o fountain_002
v -675.414917 -168.660843 829.473267
v -675.414917 619.694519 829.473267
v -3401.121094 -168.660843 829.473267
v -3401.121094 619.694519 829.473267
v -675.419800 -168.660843 -1871.881470
v -675.419800 619.694519 -1871.881470
v -3401.125977 -168.660843 -1871.881470
v -3401.125977 619.694519 -1871.881470
vn -0.0000 -0.0000 1.0000
vn -1.0000 -0.0000 -0.0000
vn -0.0000 -0.0000 -1.0000
vn 1.0000 -0.0000 -0.0000
vn -0.0000 -1.0000 -0.0000
vn -0.0000 1.0000 -0.0000
s 0
f 65//49 66//49 68//49 67//49
f 67//50 68//50 72//50 71//50
f 71//51 72//51 70//51 69//51
f 69//52 70//52 66//52 65//52
f 67//53 71//53 69//53 65//53
f 72//54 68//54 66//54 70//54
o sofa_001
v 1411.328247 3.066778 7851.375000
v 1411.328247 447.966827 7851.375000
v -4552.715820 3.066778 7851.375000
v -4552.715820 447.966827 7851.375000
v 1411.317505 3.066778 5407.230469
v 1411.317505 447.966827 5407.230469
v -4552.726074 3.066778 5407.230469
v -4552.726074 447.966827 5407.230469
vn -0.0000 -0.0000 1.0000
vn -1.0000 -0.0000 -0.0000
vn -0.0000 -0.0000 -1.0000
vn 1.0000 -0.0000 -0.0000
vn -0.0000 -1.0000 -0.0000
vn -0.0000 1.0000 -0.0000
s 0
f 73//55 74//55 76//55 75//55
f 75//56 76//56 80//56 79//56
f 79//57 80//57 78//57 77//57
f 77//58 78//58 74//58 73//58
f 75//59 79//59 77//59 73//59
f 80//60 76//60 74//60 78//60
o sofa_000
v -325.236084 3.066778 7254.731934
v -325.236084 1101.623047 7254.731934
v -3197.865479 3.066778 7254.731934
v -3197.865479 1101.623047 7254.731934
v -325.241333 3.066778 6003.874023
v -325.241333 1101.623047 6003.874023
v -3197.870850 3.066778 6003.874023
v -3197.870850 1101.623047 6003.874023
vn -0.0000 -0.0000 1.0000
vn -1.0000 -0.0000 -0.0000
vn -0.0000 -0.0000 -1.0000
vn 1.0000 -0.0000 -0.0000
vn -0.0000 -1.0000 -0.0000
vn -0.0000 1.0000 -0.0000
s 0
f 81//61 82//61 84//61 83//61
f 83//62 84//62 88//62 87//62
f 87//63 88//63 86//63 85//63
f 85//64 86//64 82//64 81//64
f 83//65 87//65 85//65 81//65
f 88//66 84//66 82//66 86//66
o skeleton
v 9901.954102 3.066778 2743.605225
v 9901.954102 2553.119629 2743.605225
v 6524.390625 3.066778 2743.605225
v 6524.390625 2553.119629 2743.605225
v 9901.947266 3.066778 1492.746826
v 9901.947266 2553.119629 1492.746826
v 6524.384277 3.066778 1492.746826
v 6524.384277 2553.119629 1492.746826
vn -0.0000 -0.0000 1.0000
vn -1.0000 -0.0000 -0.0000
vn -0.0000 -0.0000 -1.0000
vn 1.0000 -0.0000 -0.0000
vn -0.0000 -1.0000 -0.0000
vn -0.0000 1.0000 -0.0000
s 0
f 89//67 90//67 92//67 91//67
f 91//68 92//68 96//68 95//68
f 95//69 96//69 94//69 93//69
f 93//70 94//70 90//70 89//70
f 91//71 95//71 93//71 89//71
f 96//72 92//72 90//72 94//72
o skull
v 13501.208008 3.066778 336.175201
v 13501.208008 3220.035156 336.175201
v 12020.736328 3.066778 336.175201
v 12020.736328 3220.035156 336.175201
v 13501.205078 3.066778 -1219.587036
v 13501.205078 3220.035156 -1219.587036
v 12020.733398 3.066778 -1219.587036
v 12020.733398 3220.035156 -1219.587036
vn -0.0000 -0.0000 1.0000
vn -1.0000 -0.0000 -0.0000
vn -0.0000 -0.0000 -1.0000
vn 1.0000 -0.0000 -0.0000
vn -0.0000 -1.0000 -0.0000
vn -0.0000 1.0000 -0.0000
s 0
f 97//73 98//73 100//73 99//73
f 99//74 100//74 104//74 103//74
f 103//75 104//75 102//75 101//75
f 101//76 102//76 98//76 97//76
f 99//77 103//77 101//77 97//77
f 104//78 100//78 98//78 102//78
o skeleton_buddha
v 9018.282227 -274.211884 -1694.910767
v 9018.282227 3893.099854 -1694.910767
v 7380.442383 -274.211884 -1694.910767
v 7380.442383 3893.099854 -1694.910767
v 9018.279297 -274.211884 -3416.043701
v 9018.279297 3893.099854 -3416.043701
v 7380.439941 -274.211884 -3416.043701
v 7380.439941 3893.099854 -3416.043701
vn -0.0000 -0.0000 1.0000
vn -1.0000 -0.0000 -0.0000
vn -0.0000 -0.0000 -1.0000
vn 1.0000 -0.0000 -0.0000
vn -0.0000 -1.0000 -0.0000
vn -0.0000 1.0000 -0.0000
s 0
f 105//79 106//79 108//79 107//79
f 107//80 108//80 112//80 111//80
f 111//81 112//81 110//81 109//81
f 109//82 110//82 106//82 105//82
f 107//83 111//83 109//83 105//83
f 112//84 108//84 106//84 110//84
o buddha
v 4420.598145 -274.211884 -6525.248535
v 4420.598145 3853.605957 -6525.248535
v 2782.758789 -274.211884 -6525.248535
v 2782.758789 3853.605957 -6525.248535
v 4420.595215 -274.211884 -8246.381836
v 4420.595215 3853.605957 -8246.381836
v 2782.755615 -274.211884 -8246.381836
v 2782.755615 3853.605957 -8246.381836
vn -0.0000 -0.0000 1.0000
vn -1.0000 -0.0000 -0.0000
vn -0.0000 -0.0000 -1.0000
vn 1.0000 -0.0000 -0.0000
vn -0.0000 -1.0000 -0.0000
vn -0.0000 1.0000 -0.0000
s 0
f 113//85 114//85 116//85 115//85
f 115//86 116//86 120//86 119//86
f 119//87 120//87 118//87 117//87
f 117//88 118//88 114//88 113//88
f 115//89 119//89 117//89 113//89
f 120//90 116//90 114//90 118//90
o lion
v -129.814270 -250.331635 -8838.661133
v -129.814270 4060.526855 -8838.661133
v -3362.594727 -250.331635 -8838.661133
v -3362.594727 4060.526855 -8838.661133
v -129.819992 -250.331635 -10754.242188
v -129.819992 4060.526855 -10754.242188
v -3362.600586 -250.331635 -10754.242188
v -3362.600586 4060.526855 -10754.242188
vn -0.0000 -0.0000 1.0000
vn -1.0000 -0.0000 -0.0000
vn -0.0000 -0.0000 -1.0000
vn 1.0000 -0.0000 -0.0000
vn -0.0000 -1.0000 -0.0000
vn -0.0000 1.0000 -0.0000
s 0
f 121//91 122//91 124//91 123//91
f 123//92 124//92 128//92 127//92
f 127//93 128//93 126//93 125//93
f 125//94 126//94 122//94 121//94
f 123//95 127//95 125//95 121//95
f 128//96 124//96 122//96 126//96
o david
v -6775.693848 -250.331635 -6873.748535
v -6775.693848 4020.519287 -6873.748535
v -8247.772461 -250.331635 -6873.748535
v -8247.772461 4020.519287 -6873.748535
v -6775.696777 -250.331635 -8400.103516
v -6775.696777 4020.519287 -8400.103516
v -8247.775391 -250.331635 -8400.103516
v -8247.775391 4020.519287 -8400.103516
vn -0.0000 -0.0000 1.0000
vn -1.0000 -0.0000 -0.0000
vn -0.0000 -0.0000 -1.0000
vn 1.0000 -0.0000 -0.0000
vn -0.0000 -1.0000 -0.0000
vn -0.0000 1.0000 -0.0000
s 0
f 129//97 130//97 132//97 131//97
f 131//98 132//98 136//98 135//98
f 135//99 136//99 134//99 133//99
f 133//100 134//100 130//100 129//100
f 131//101 135//101 133//101 129//101
f 136//102 132//102 130//102 134//102
o wall_017
v -8897.120117 -250.331604 3271.871582
v -8897.120117 5473.589355 3271.871582
v -8897.120117 -250.331604 2874.875244
v -8897.120117 5473.589355 2874.875244
v -2781.028564 -250.331604 3271.871582
v -2781.028564 5473.589355 3271.871582
v -2781.028564 -250.331604 2874.875244
v -2781.028564 5473.589355 2874.875244
vn -1.0000 -0.0000 -0.0000
vn -0.0000 -0.0000 -1.0000
vn 1.0000 -0.0000 -0.0000
vn -0.0000 -0.0000 1.0000
vn -0.0000 -1.0000 -0.0000
vn -0.0000 1.0000 -0.0000
s 0
f 137//103 138//103 140//103 139//103
f 139//104 140//104 144//104 143//104
f 143//105 144//105 142//105 141//105
f 141//106 142//106 138//106 137//106
f 139//107 143//107 141//107 137//107
f 144//108 140//108 138//108 142//108
o wall_000
v -4521.831543 -250.331635 -2554.879883
v -4521.831543 5473.589355 -2554.879883
v -4982.493652 -250.331635 -2554.879883
v -4982.493652 5473.589355 -2554.879883
v -4521.832520 -250.331635 -4081.234863
v -4521.832520 5473.589355 -4081.234863
v -4982.494629 -250.331635 -4081.234863
v -4982.494629 5473.589355 -4081.234863
vn -0.0000 -0.0000 1.0000
vn -1.0000 -0.0000 -0.0000
vn -0.0000 -0.0000 -1.0000
vn 1.0000 -0.0000 -0.0000
vn -0.0000 -1.0000 -0.0000
vn -0.0000 1.0000 -0.0000
s 0
f 145//109 146//109 148//109 147//109
f 147//110 148//110 152//110 151//110
f 151//111 152//111 150//111 149//111
f 149//112 150//112 146//112 145//112
f 147//113 151//113 149//113 145//113
f 152//114 148//114 146//114 150//114
o wall_001
v -4521.831543 -250.331635 3028.938721
v -4521.831543 5473.589355 3028.938721
v -4982.493652 -250.331635 3028.938721
v -4982.493652 5473.589355 3028.938721
v -4521.832520 -250.331635 1502.583740
v -4521.832520 5473.589355 1502.583740
v -4982.494629 -250.331635 1502.583740
v -4982.494629 5473.589355 1502.583740
vn -0.0000 -0.0000 1.0000
vn -1.0000 -0.0000 -0.0000
vn -0.0000 -0.0000 -1.0000
vn 1.0000 -0.0000 -0.0000
vn -0.0000 -1.0000 -0.0000
vn -0.0000 1.0000 -0.0000
s 0
f 153//115 154//115 156//115 155//115
f 155//116 156//116 160//116 159//116
f 159//117 160//117 158//117 157//117
f 157//118 158//118 154//118 153//118
f 155//119 159//119 157//119 153//119
f 160//120 156//120 154//120 158//120
o wall_016
v 1350.618896 -250.331635 3028.938721
v 1350.618896 5473.589355 3028.938721
v 889.956360 -250.331635 3028.938721
v 889.956360 5473.589355 3028.938721
v 1350.618042 -250.331635 1502.583740
v 1350.618042 5473.589355 1502.583740
v 889.955505 -250.331635 1502.583740
v 889.955505 5473.589355 1502.583740
vn -0.0000 -0.0000 1.0000
vn -1.0000 -0.0000 -0.0000
vn -0.0000 -0.0000 -1.0000
vn 1.0000 -0.0000 -0.0000
vn -0.0000 -1.0000 -0.0000
vn -0.0000 1.0000 -0.0000
s 0
f 161//121 162//121 164//121 163//121
f 163//122 164//122 168//122 167//122
f 167//123 168//123 166//123 165//123
f 165//124 166//124 162//124 161//124
f 163//125 167//125 165//125 161//125
f 168//126 164//126 162//126 166//126
o wall_015
v 1350.618896 -250.331635 -2554.879883
v 1350.618896 5473.589355 -2554.879883
v 889.956360 -250.331635 -2554.879883
v 889.956360 5473.589355 -2554.879883
v 1350.618042 -250.331635 -4081.234863
v 1350.618042 5473.589355 -4081.234863
v 889.955505 -250.331635 -4081.234863
v 889.955505 5473.589355 -4081.234863
vn -0.0000 -0.0000 1.0000
vn -1.0000 -0.0000 -0.0000
vn -0.0000 -0.0000 -1.0000
vn 1.0000 -0.0000 -0.0000
vn -0.0000 -1.0000 -0.0000
vn -0.0000 1.0000 -0.0000
s 0
f 169//127 170//127 172//127 171//127
f 171//128 172//128 176//128 175//128
f 175//129 176//129 174//129 173//129
f 173//130 174//130 170//130 169//130
f 171//131 175//131 173//131 169//131
f 176//132 172//132 170//132 174//132
o wall_014
v 2725.278564 -250.331635 -2003.184814
v 2725.278564 5473.589355 -2003.184814
v 2264.615967 -250.331635 -2003.184814
v 2264.615967 5473.589355 -2003.184814
v 2725.277588 -250.331635 -4062.376465
v 2725.277588 5473.589355 -4062.376465
v 2264.615234 -250.331635 -4062.376465
v 2264.615234 5473.589355 -4062.376465
vn -0.0000 -0.0000 1.0000
vn -1.0000 -0.0000 -0.0000
vn -0.0000 -0.0000 -1.0000
vn 1.0000 -0.0000 -0.0000
vn -0.0000 -1.0000 -0.0000
vn -0.0000 1.0000 -0.0000
s 0
f 177//133 178//133 180//133 179//133
f 179//134 180//134 184//134 183//134
f 183//135 184//135 182//135 181//135
f 181//136 182//136 178//136 177//136
f 179//137 183//137 181//137 177//137
f 184//138 180//138 178//138 182//138
o wall_013
v 2725.278564 -250.331635 3154.780762
v 2725.278564 5473.589355 3154.780762
v 2264.615967 -250.331635 3154.780762
v 2264.615967 5473.589355 3154.780762
v 2725.277588 -250.331635 1095.589111
v 2725.277588 5473.589355 1095.589111
v 2264.615234 -250.331635 1095.589111
v 2264.615234 5473.589355 1095.589111
vn -0.0000 -0.0000 1.0000
vn -1.0000 -0.0000 -0.0000
vn -0.0000 -0.0000 -1.0000
vn 1.0000 -0.0000 -0.0000
vn -0.0000 -1.0000 -0.0000
vn -0.0000 1.0000 -0.0000
s 0
f 185//139 186//139 188//139 187//139
f 187//140 188//140 192//140 191//140
f 191//141 192//141 190//141 189//141
f 189//142 190//142 186//142 185//142
f 187//143 191//143 189//143 185//143
f 192//144 188//144 186//144 190//144
o wall_012
v 14231.097656 -250.331604 3031.567627
v 14231.097656 5473.589355 3031.567627
v 13834.100586 -250.331604 3031.567627
v 13834.100586 5473.589355 3031.567627
v 14231.096680 -250.331604 -4070.104004
v 14231.096680 5473.589355 -4070.104004
v 13834.099609 -250.331604 -4070.104004
v 13834.099609 5473.589355 -4070.104004
vn -0.0000 -0.0000 1.0000
vn -1.0000 -0.0000 -0.0000
vn -0.0000 -0.0000 -1.0000
vn 1.0000 -0.0000 -0.0000
vn -0.0000 -1.0000 -0.0000
vn -0.0000 1.0000 -0.0000
s 0
f 193//145 194//145 196//145 195//145
f 195//146 196//146 200//146 199//146
f 199//147 200//147 198//147 197//147
f 197//148 198//148 194//148 193//148
f 195//149 199//149 197//149 193//149
f 200//150 196//150 194//150 198//150
o wall_011
v 4821.647461 -250.331604 -4094.035156
v 4821.647461 5473.589355 -4094.035156
v 4424.651367 -250.331604 -4094.035156
v 4424.651367 5473.589355 -4094.035156
v 4821.646484 -250.331604 -11195.707031
v 4821.646484 5473.589355 -11195.707031
v 4424.650391 -250.331604 -11195.707031
v 4424.650391 5473.589355 -11195.707031
vn -0.0000 -0.0000 1.0000
vn -1.0000 -0.0000 -0.0000
vn -0.0000 -0.0000 -1.0000
vn 1.0000 -0.0000 -0.0000
vn -0.0000 -1.0000 -0.0000
vn -0.0000 1.0000 -0.0000
s 0
f 201//151 202//151 204//151 203//151
f 203//152 204//152 208//152 207//152
f 207//153 208//153 206//153 205//153
f 205//154 206//154 202//154 201//154
f 203//155 207//155 205//155 201//155
f 208//156 204//156 202//156 206//156
o wall_010
v 4821.647461 -250.331604 10910.839844
v 4821.647461 5473.589355 10910.839844
v 4424.651367 -250.331604 10910.839844
v 4424.651367 5473.589355 10910.839844
v 4821.646484 -250.331604 3009.821045
v 4821.646484 5473.589355 3009.821045
v 4424.650391 -250.331604 3009.821045
v 4424.650391 5473.589355 3009.821045
vn -0.0000 -0.0000 1.0000
vn -1.0000 -0.0000 -0.0000
vn -0.0000 -0.0000 -1.0000
vn 1.0000 -0.0000 -0.0000
vn -0.0000 -1.0000 -0.0000
vn -0.0000 1.0000 -0.0000
s 0
f 209//157 210//157 212//157 211//157
f 211//158 212//158 216//158 215//158
f 215//159 216//159 214//159 213//159
f 213//160 214//160 210//160 209//160
f 211//161 215//161 213//161 209//161
f 216//162 212//162 210//162 214//162
o wall_009
v -8493.180664 -250.331604 -2209.641357
v -8493.180664 5473.589355 -2209.641357
v -8890.176758 -250.331604 -2209.641357
v -8890.176758 5473.589355 -2209.641357
v -8493.181641 -250.331604 -11321.245117
v -8493.181641 5473.589355 -11321.245117
v -8890.177734 -250.331604 -11321.245117
v -8890.177734 5473.589355 -11321.245117
vn -0.0000 -0.0000 1.0000
vn -1.0000 -0.0000 -0.0000
vn -0.0000 -0.0000 -1.0000
vn 1.0000 -0.0000 -0.0000
vn -0.0000 -1.0000 -0.0000
vn -0.0000 1.0000 -0.0000
s 0
f 217//163 218//163 220//163 219//163
f 219//164 220//164 224//164 223//164
f 223//165 224//165 222//165 221//165
f 221//166 222//166 218//166 217//166
f 219//167 223//167 221//167 217//167
f 224//168 220//168 218//168 222//168
o wall_008
v -8493.180664 -250.331604 10910.839844
v -8493.180664 5473.589355 10910.839844
v -8890.176758 -250.331604 10910.839844
v -8890.176758 5473.589355 10910.839844
v -8493.181641 -250.331604 1234.883423
v -8493.181641 5473.589355 1234.883423
v -8890.177734 -250.331604 1234.883423
v -8890.177734 5473.589355 1234.883423
vn -0.0000 -0.0000 1.0000
vn -1.0000 -0.0000 -0.0000
vn -0.0000 -0.0000 -1.0000
vn 1.0000 -0.0000 -0.0000
vn -0.0000 -1.0000 -0.0000
vn -0.0000 1.0000 -0.0000
s 0
f 225//169 226//169 228//169 227//169
f 227//170 228//170 232//170 231//170
f 231//171 232//171 230//171 229//171
f 229//172 230//172 226//172 225//172
f 227//173 231//173 229//173 225//173
f 232//174 228//174 226//174 230//174
o wall_007
v -8897.120117 -250.331604 -10912.771484
v -8897.120117 5473.589355 -10912.771484
v -8897.120117 -250.331604 -11309.767578
v -8897.120117 5473.589355 -11309.767578
v 4814.649902 -250.331604 -10912.771484
v 4814.649902 5473.589355 -10912.771484
v 4814.649902 -250.331604 -11309.767578
v 4814.649902 5473.589355 -11309.767578
vn -1.0000 -0.0000 -0.0000
vn -0.0000 -0.0000 -1.0000
vn 1.0000 -0.0000 -0.0000
vn -0.0000 -0.0000 1.0000
vn -0.0000 -1.0000 -0.0000
vn -0.0000 1.0000 -0.0000
s 0
f 233//175 234//175 236//175 235//175
f 235//176 236//176 240//176 239//176
f 239//177 240//177 238//177 237//177
f 237//178 238//178 234//178 233//178
f 235//179 239//179 237//179 233//179
f 240//180 236//180 234//180 238//180
o horse
v -6774.023926 1703.033081 3555.323975
v -6774.023926 3862.190674 3555.323975
v -6774.023926 1703.033081 3158.327881
v -6774.023926 3862.190674 3158.327881
v -4718.812988 1703.033081 3555.323975
v -4718.812988 3862.190674 3555.323975
v -4718.812988 1703.033081 3158.327881
v -4718.812988 3862.190674 3158.327881
vn -1.0000 -0.0000 -0.0000
vn -0.0000 -0.0000 -1.0000
vn 1.0000 -0.0000 -0.0000
vn -0.0000 -0.0000 1.0000
vn -0.0000 -1.0000 -0.0000
vn -0.0000 1.0000 -0.0000
s 0
f 241//181 242//181 244//181 243//181
f 243//182 244//182 248//182 247//182
f 247//183 248//183 246//183 245//183
f 245//184 246//184 242//184 241//184
f 243//185 247//185 245//185 241//185
f 248//186 244//186 242//186 246//186
o michaelangelo
v -8024.902344 1694.925781 8315.400391
v -8024.902344 3699.314697 8315.400391
v -8659.288086 1694.925781 8315.400391
v -8659.288086 3699.314697 8315.400391
v -8024.903320 1694.925781 4912.366699
v -8024.903320 3699.314697 4912.366699
v -8659.289062 1694.925781 4912.366699
v -8659.289062 3699.314697 4912.366699
vn -0.0000 -0.0000 1.0000
vn -1.0000 -0.0000 -0.0000
vn -0.0000 -0.0000 -1.0000
vn 1.0000 -0.0000 -0.0000
vn -0.0000 -1.0000 -0.0000
vn -0.0000 1.0000 -0.0000
s 0
f 249//187 250//187 252//187 251//187
f 251//188 252//188 256//188 255//188
f 255//189 256//189 254//189 253//189
f 253//190 254//190 250//190 249//190
f 251//191 255//191 253//191 249//191
f 256//192 252//192 250//192 254//192
o starrynight
v -7025.333496 898.068909 10618.648438
v -7025.333496 4952.126465 10618.648438
v -7025.333496 898.068909 10221.653320
v -7025.333496 4952.126465 10221.653320
v -1001.334900 898.068909 10618.648438
v -1001.334900 4952.126465 10618.648438
v -1001.334900 898.068909 10221.653320
v -1001.334900 4952.126465 10221.653320
vn -1.0000 -0.0000 -0.0000
vn -0.0000 -0.0000 -1.0000
vn 1.0000 -0.0000 -0.0000
vn -0.0000 -0.0000 1.0000
vn -0.0000 -1.0000 -0.0000
vn -0.0000 1.0000 -0.0000
s 0
f 257//193 258//193 260//193 259//193
f 259//194 260//194 264//194 263//194
f 263//195 264//195 262//195 261//195
f 261//196 262//196 258//196 257//196
f 259//197 263//197 261//197 257//197
f 264//198 260//198 258//198 262//198
o mondrian
v 490.988251 1793.958496 10666.724609
v 490.988251 3871.005127 10666.724609
v 490.988251 1793.958496 10269.727539
v 490.988251 3871.005127 10269.727539
v 2571.882812 1793.958496 10666.724609
v 2571.882812 3871.005127 10666.724609
v 2571.882812 1793.958496 10269.727539
v 2571.882812 3871.005127 10269.727539
vn -1.0000 -0.0000 -0.0000
vn -0.0000 -0.0000 -1.0000
vn 1.0000 -0.0000 -0.0000
vn -0.0000 -0.0000 1.0000
vn -0.0000 -1.0000 -0.0000
vn -0.0000 1.0000 -0.0000
s 0
f 265//199 266//199 268//199 267//199
f 267//200 268//200 272//200 271//200
f 271//201 272//201 270//201 269//201
f 269//202 270//202 266//202 265//202
f 267//203 271//203 269//203 265//203
f 272//204 268//204 266//204 270//204
o monalisa
v 4579.407227 973.515991 7995.025879
v 4579.407227 4727.026367 7995.025879
v 4152.603027 973.515991 7995.025879
v 4152.603027 4727.026367 7995.025879
v 4579.406250 973.515991 5905.804199
v 4579.406250 4727.026367 5905.804199
v 4152.602051 973.515991 5905.804199
v 4152.602051 4727.026367 5905.804199
vn -0.0000 -0.0000 1.0000
vn -1.0000 -0.0000 -0.0000
vn -0.0000 -0.0000 -1.0000
vn 1.0000 -0.0000 -0.0000
vn -0.0000 -1.0000 -0.0000
vn -0.0000 1.0000 -0.0000
s 0
f 273//205 274//205 276//205 275//205
f 275//206 276//206 280//206 279//206
f 279//207 280//207 278//207 277//207
f 277//208 278//208 274//208 273//208
f 275//209 279//209 277//209 273//209
f 280//210 276//210 274//210 278//210
o floor
v -8846.251953 -2234.886230 10950.995117
v -8846.251953 -234.886047 10950.995117
v -8846.251953 -2234.886230 -11389.961914
v -8846.251953 -234.886047 -11389.961914
v 14153.748047 -2234.886230 10950.995117
v 14153.748047 -234.886047 10950.995117
v 14153.748047 -2234.886230 -11389.961914
v 14153.748047 -234.886047 -11389.961914
vn -1.0000 -0.0000 -0.0000
vn -0.0000 -0.0000 -1.0000
vn 1.0000 -0.0000 -0.0000
vn -0.0000 -0.0000 1.0000
vn -0.0000 -1.0000 -0.0000
vn -0.0000 1.0000 -0.0000
s 0
f 281//211 282//211 284//211 283//211
f 283//212 284//212 288//212 287//212
f 287//213 288//213 286//213 285//213
f 285//214 286//214 282//214 281//214
f 283//215 287//215 285//215 281//215
f 288//216 284//216 282//216 286//216
